<?xml version="1.0" standalone="yes"?>
<svg xmlns="http://www.w3.org/2000/svg" width="1024" height="1024">
  <path style="fill:#48494d; stroke:none;"
    d="M0 0L0 732L0 918L0 964C0 971.858 -1.28469 979.647 4.18904 986C20.2178 1004.6 47.6494 1019.72 72 1023.74C78.0991 1024.75 84.8284 1024 91 1024L128 1024L276 1024L1024 1024L1024 676C1014.56 676.026 1005.4 678.755 996 678.985C954.175 680.01 910.254 676.274 870 664.279C854.583 659.686 839.337 653.683 825 646.395C818.155 642.916 811.957 638.252 805 635C806.534 633.977 806.402 634.195 807 633L797 624C805.763 625.147 813.853 632.49 821 637.344C823.826 639.264 827.401 642.817 830.985 643.03C837.002 643.388 837.998 634.062 844.015 633.912C853.677 633.672 863.855 636.87 873.089 639.157C879.823 640.824 888.055 641.432 895 641.911C939.043 644.944 981.582 640.579 1024 629L1024 474L1024 435C1024 431.109 1025.38 423.916 1022.4 420.879C1019.54 417.965 1013.75 417.622 1010 416.496C998.775 413.126 987.485 408.904 976 406.552C958.295 402.926 940.954 398.707 923 396.289C900.356 393.238 877.659 392.988 855 390.83C812.252 386.759 769.841 387.085 727 388.961C686.269 390.744 645.521 392.31 605 397.286C586.566 399.55 568.339 403.674 550 406.561C536.297 408.718 522.567 410.424 509 413.499C495.746 416.503 483.023 421.063 470 424.714C417.006 439.572 363.247 453.814 315 481.427C306.455 486.318 299.02 492.418 291 498C300.628 488.451 311.902 481.624 323 473.974C361.086 447.724 405.088 429.686 449 415.656C488.291 403.102 527.455 390.756 568 382.804C610.242 374.519 653.184 370.843 696 367.911C731.79 365.46 768.222 364.707 804 368.17C844.392 372.079 885.368 377.937 925 386.517C940.674 389.91 956.485 393.649 972 397.735C978.28 399.388 984.621 402.703 991 403.657C996.409 404.465 1001.59 401.634 1007 402.144C1013.08 402.717 1017.55 405.995 1024 406L1024 238C1020.18 238 1019.91 239.478 1018 239L1017 243L1012 242C1011.45 243.635 1011.64 243.455 1010 244L1014 247L1007 246C1004.59 248.673 1002.08 250.51 1001 254L998 251C992.795 252.172 988.062 251.122 983 252L986 254L983 255C981.103 252.076 979.442 251.39 976 251C976 252.797 976.014 252.521 977 254C972.328 253.941 968.485 251.236 964 250C964.482 252.364 964.636 252.518 967 253C965.703 254.594 965.465 255.018 965 257C962.303 257.034 961.314 257.522 959 259C959.126 257.286 959.302 256.567 960 255C956.33 253.895 953.712 254.325 950 255L952 252C949.821 251.274 950.22 251.561 951 250L945 250C944.822 244.663 943.222 243.621 938 244C940.128 240.965 940.147 237.568 941 234C935.07 229.694 934.685 222.882 930.787 217.06C929.167 214.64 926.33 210.816 924 214C921.958 212.562 920.403 211.628 918 211L919 208C912.71 207.187 909.091 206.265 907 200C898.294 201.664 889.794 203.889 881 205C879.767 207.212 879.368 207.992 877 207L873 208C873.65 209.3 873.147 209 875 209C872.779 209.39 871.246 209.335 869 209L868 212C866.418 211.801 865.287 211.783 864 211L862 214C861.628 211.082 861.458 209.628 859 208C859 211.024 857.327 209.629 856 208L853 211C852.824 209.122 852.562 207.801 852 206C849.087 207.166 847.627 207.764 845 206L847 207C845.46 205.197 844.402 205.168 842 205L842 203L846 203L843 200C844.478 200.986 844.203 201 846 201C844.803 198.547 842.654 196.294 841 194C839.365 194.545 839.545 194.365 839 196C836.534 193.698 835.344 192.364 835 189L833 189C833.986 187.522 834 187.797 834 186C831.694 184.541 830.285 183.401 829 181C826.531 181.426 824.355 182.132 822 183L819 178C816.595 178.234 814.327 178.342 812 179C810.774 176.965 810.297 176.674 808 176L809 171C806.438 171.736 806.017 172.519 805 175C801.275 172.336 798.186 168.956 794 167C792.357 170.627 788.852 168.103 788 172C787.286 170.053 787.081 169.066 787 167C783.937 166.571 781.809 166.569 780 164C778.805 164.598 779.023 164.466 778 166C776.098 164.844 775.278 164.844 773 165C772.968 163.266 772.999 163.493 772 162C773.875 162.068 775.208 162.398 777 163L776 159C772.619 159.895 769.511 160.82 766 161L767 157C764.908 157.406 764.98 157.217 764 159C762.199 158.438 760.878 158.176 759 158L765 162C762.106 161.932 760.651 160.729 760 164C759.014 162.521 759 162.797 759 161C756.437 160.45 754.365 159.155 752 158C750.723 159.915 750.723 159.085 752 161C749.867 160.707 749.427 160.509 748 162C746.4 161.03 745.337 160.28 744 159L741 161L742 157C737.31 156.861 733.516 154.858 729 154L734 159C731.347 158.151 728.75 157.435 726 157C725.496 153.811 724.38 152.166 722 150C720.723 151.915 720.723 151.085 722 153C719.239 151.287 717.946 150.113 717 147C714.795 147.094 713.106 147.356 711 148C710.232 146.686 710.314 146.768 709 146C710.391 144.594 711.073 143.729 712 142C709.623 141.689 709.017 141.747 707 143C706.528 141.584 706.186 141.186 705 140L701 142C700.161 138.961 696.251 135.75 697 133C695.352 132.076 693.825 131.551 692 131C692 132.797 692.014 132.521 693 134C690.903 134.047 689.903 133.866 688 133L691 132C687.694 129.762 684.821 129.177 682 126L687 125C684.471 123.961 682.824 123.907 681 126C679.316 125.776 678.686 125.782 677 126L676 122L680 123C679.515 122.03 677.251 120.004 677 119C676.849 118.394 679.141 118.628 676 118C676.819 115.894 677.487 114.653 679 113C677.494 112.317 676.685 112.174 675 112L676 115C674.801 113.637 672.854 111.998 672.454 110.13C672.011 108.064 673.471 107.538 672 106C673.801 105.438 675.122 105.176 677 105C675.494 104.317 674.685 104.174 673 104C673.545 102.365 673.365 102.545 675 102C668.988 99.4535 660.694 102.327 658 95C654.149 94.7469 651.676 93.8047 649 91L641 91L640 86C638.804 86.5978 639.023 86.4659 638 88C637.272 86.1794 636.281 86.176 636 84C635.315 85.2482 635.251 85.5485 635 87C633.445 84.8058 632.506 83.9527 630 83C631.036 81.8137 631.339 81.3964 632 80L627 80C627.126 77.419 627.046 76.5742 625 75L626 71C624.985 72.1392 624.691 72.6117 624 74L622 74C620.719 69.6482 618.918 66.391 615 64C616.754 63.4152 615.995 63.3317 618 64C616.396 61.6363 614.693 60.9609 612 60C613.82 57.3704 613.758 55.1317 614 52C611.404 50.6785 609.217 49.235 612 47C610.752 43.0422 608.14 39.9045 607 36C603.532 36.2903 600.424 35.3643 597 35L598 31C602.568 34.2202 608.458 32.5668 614 33C613.402 31.8047 613.534 32.0226 612 31L616 31C614.777 29.8048 614.58 29.6835 613 29L614 26C608.604 25.409 605.934 21.402 601 20C602.153 17.7513 602.751 17.1535 605 16L603 13C604.478 13.9856 604.203 14 606 14C603.52 11.9674 601.17 11.4368 598 11C598.511 9.04767 598.733 8.54315 600 7L599 3C601.394 2.35199 602.536 1.96771 604 0L0 0z" />


<path style="fill:#b7b9bb; stroke:none;" d="M599 3L600 7C598.382 8.31409 598.307 8.87732 598 11L606 13C604.246 13.5847 605.005 13.6682 603 13C603.768 14.314 603.686 14.2322 605 15C602.677 16.5535 601.827 17.3483 601 20C605.85 22.2346 608.315 25.69 614 26C613.014 27.4787 613 27.2031 613 29L616 30C614.281 30.4183 611.106 30.7419 614 32C608.903 32.8632 602.668 33.3188 598 31L597 35C600.53 35.6793 603.412 36.62 607 36C607.663 40.0507 610.318 43.2629 612 47C606.993 48.0784 610.753 51.4147 614 52C613.588 54.9021 613.343 57.3732 612 60C614.339 61.1746 616.142 62.1776 618 64C616.521 63.0142 616.797 63 615 63C617.706 66.5743 620.21 69.8541 622 74L624 74C624.986 72.5215 625 72.7966 625 71C625.224 72.6838 625.218 73.3136 625 75C626.541 76.7615 626.961 77.6558 627 80L632 80L630 83C632.118 84.2176 632.845 84.8669 634 87C634.685 85.7515 634.749 85.4518 635 84C635.986 85.4786 636 85.2032 636 87C637.661 86.7924 637.54 86.5046 638 88C639.3 87.3501 639 87.8532 639 86C639.89 87.7447 640.453 89.1249 641 91C643.809 91.1731 646.199 91.5325 649 91C651.044 94.5377 654.116 94.9387 658 95C659.527 101.997 669.065 100.984 675 101C673.965 102.186 673.661 102.604 673 104L677 104C675.199 104.562 673.878 104.824 672 105C672.598 106.196 672.466 105.977 674 107C671.242 110.086 672.743 111.916 675 115C675.479 113.502 675.4 113.65 675 112L679 112C677.37 114 676.662 115.502 676 118L680 123L676 122L677 126L681 126C683.057 124.418 684.388 124.174 687 124L682 126C684.421 129.699 686.692 130.505 691 131L688 133C689.919 134.144 690.732 134.174 693 134L692 131C693.801 131.562 695.122 131.824 697 132C695.466 133.023 695.598 132.805 695 134C697.392 136.701 699.598 138.584 701 142C702.982 141.535 703.406 141.296 705 140C705.472 141.416 705.814 141.814 707 143C708.823 142.255 710.023 142.046 712 142L709 145L711 148L717 147C717.588 150.483 718.763 151.647 722 153L722 150C723.838 152.327 725.205 154.147 726 157L734 159C732.599 156.835 731.357 156.094 729 155C733.407 155.053 737.44 156.949 742 157L741 161C742.314 160.232 742.232 160.314 743 159C744.674 160.411 745.969 161.175 748 162C749.624 161.134 750.108 161.081 752 161L752 158C754.562 159.82 758.609 160.97 759 164C759.685 162.752 759.749 162.452 760 161C762.018 161.987 762.801 162.233 765 162C763.022 160.268 761.565 159.598 759 159C761.018 158.66 761.968 158.677 764 159C765.223 157.805 765.42 157.684 767 157L766 161C769.623 160.915 772.6 160.24 776 159L777 163C774.896 162.124 774.248 161.954 772 162C773.364 163.819 773.492 163.031 773 165C775.312 164.908 777.839 165.826 779 164C781.154 167.257 783.336 166.776 787 167C786.66 169.018 786.677 169.967 787 172C787.685 170.752 787.749 170.452 788 169C791.137 169.834 793.231 170.589 794 167C797.76 169.583 800.9 173.019 805 175C806.277 173.015 806.981 172.151 809 171C808.438 172.8 808.176 174.122 808 176C809.949 176.936 810.55 177.392 812 179L819 178L822 183L829 181C829.934 183.823 831.293 184.811 834 186L833 189L835 189C834.652 192.374 835.635 193.578 838 196C839.635 195.455 839.455 195.635 840 194L846 201L843 200C843.98 201.783 843.907 201.594 846 202L842 203L842 205C844.294 205.303 845.212 205.579 847 207L845 206C847.235 208.51 849.249 207.455 852 206L853 211C854.783 210.02 854.594 210.092 855 208C856.707 209.48 859.02 211.005 859 208L862 209C861.677 211.032 861.66 211.982 862 214C862.685 212.752 862.749 212.452 863 211C864.023 212.534 863.805 212.402 865 213C866.354 212.288 866.545 212.185 868 212C868.986 210.521 869 210.797 869 209L875 210C874.402 208.805 874.534 209.023 873 208L877 207C879.147 209.272 880.213 207.445 881 205C889.737 204.31 898.525 202.188 907 200C908.206 206.783 912.701 207.499 919 208C918.014 209.479 918 209.203 918 211C919.952 211.818 921.319 212.694 923 214C926.792 212.469 928.694 214.866 930.768 218.04C934.375 223.562 934.758 230.799 941 234C940.039 237.213 940.045 240.304 938 243C942.502 244.825 944.607 244.308 945 250C947.126 250.231 948.879 250.246 951 250C950.662 251.672 950.463 251.31 952 252C950.965 253.186 950.661 253.604 950 255C953.585 254.64 956.436 254.222 960 255C958.634 256.916 958.648 256.711 959 259C961.085 257.989 962.711 257.216 965 257C965.683 255.42 965.805 255.223 967 254C965.598 252.649 964.824 251.746 964 250C968.473 251.681 972.128 254.626 977 254L976 251C979.619 251.732 982.352 254.155 986 254L983 252C988.412 251.547 992.577 252.715 998 251C998.902 252.923 999.076 252.999 1001 254C1002.56 250.925 1005.19 248.915 1007 246C1009.36 246.563 1011.58 246.834 1014 247C1012.69 245.382 1012.12 245.307 1010 245C1011.04 243.813 1011.34 243.397 1012 242L1017 243L1018 239C1020.08 238.957 1021.93 238.42 1024 238L1024 0L730 0L645 0C629.919 0 613.172 -2.33008 599 3z"/>

  <path style="fill:#b7b9bb; stroke:none;"
    d="M296 294C297.543 295.267 298.048 295.489 300 296C298.686 294.382 298.123 294.307 296 294M291 498C300.145 493.761 308.044 485.859 317 480.862C338.027 469.13 360.566 459.481 383.001 450.916C406.983 441.76 432.218 434.881 457 428.421C475.095 423.704 492.66 417.093 511 413.286C582.767 398.384 655.023 392.156 728 388.961C749.909 388.001 772.036 386.477 794 387.015C818.702 387.62 843.354 390.223 868 391.911C895.16 393.771 922.127 395.738 949 400.464C974.398 404.93 999.513 413.156 1024 421L1024 406C1017.9 405.979 1013.76 402.79 1008 402.13C1002.26 401.474 996.635 404.456 991 403.432C984.949 402.332 978.995 399.313 973 397.735C957.485 393.649 941.674 389.91 926 386.517C886.368 377.937 845.392 372.079 805 368.17C768.579 364.645 731.435 365.415 695 367.911C637.374 371.857 580.236 378.416 524 392.475C504.055 397.462 484.667 404.355 465 410.28C417.085 424.715 366.085 442.607 325 471.859C313.738 479.877 299.143 486.535 291 498M66 556C75.3519 549.412 82.5236 539.826 91 532.17C103.701 520.698 117.929 510.724 132 501.026C175.192 471.256 221.964 447.412 270 426.576C329.108 400.937 391.859 380 457 380C451.049 377.503 442.42 379 436 379C416.431 379 396.296 381.725 377 384.704C340.897 390.278 306.999 402.061 273 415.189C225.273 433.618 179.35 456.406 138 486.884C119.067 500.84 101.616 516.384 85 533C78.3402 539.66 68.4601 546.576 66 556M901 430C889.354 420.431 872.246 422.359 858 420.834C841.964 419.117 826.978 418.308 811 421.31C794.674 424.378 779.72 432.638 764 437.656C747.208 443.016 730.414 445.145 713 446.83C686.033 449.44 659.168 442.684 633 437.449C598.559 430.56 562.231 424.677 527 427.089C500.699 428.891 475.062 436.269 450 443.975C430.608 449.938 411.281 455.659 392 461.999C367.621 470.016 341.648 475.51 318.17 485.874C300.429 493.706 285.77 508.333 268 516C275.745 510.327 285.306 505.911 291 498C283.185 501.287 276.047 507.28 269 512.001C252.05 523.356 237.348 536.042 224.6 552C220.118 557.612 214.81 563.354 212 570C213.635 569.455 213.455 569.635 214 568C217.978 569.356 220.3 567.705 224 566C226.239 572.337 222.526 581.979 214.043 580.865C211.365 580.513 209.687 577.831 208 576C197.571 593.937 194.259 616.594 205 635C207.881 632.149 209.448 628.725 211 625C210.068 632.715 204.862 641.521 200.655 648C190.511 663.624 177.834 677.849 160 684.575C150.689 688.086 126.261 692.306 124 678C122.203 678 122.479 678.014 121 679C124.471 689.203 133.596 690.003 143 690C160.868 689.994 178.08 682.255 191 669.96C200.996 660.447 208.747 649.39 214.742 637C218.421 629.395 220.376 620.362 226.105 614C258.157 578.408 305.794 566.526 350 553.28C365.687 548.58 386.585 539.722 403 545C401.466 546.023 401.598 545.805 401 547C403.932 548.704 406.74 550.061 410 551C391.369 569.633 372.594 604.523 385.327 631C389.724 640.143 402.952 643.152 405.698 653C406.502 655.886 404.974 658.594 403.535 661C399.531 667.692 385.871 681.643 398.019 687.817C408.479 693.133 408.644 677.635 411.109 672.001C414.371 664.543 423.032 660.261 431 661.11C440.475 662.119 449.707 675.49 452.214 684C453.307 687.712 452.405 692.545 454.767 695.772C457.979 700.159 466.825 700.14 470.606 696.566C475.609 691.837 472.697 686.284 468.899 682C463.505 675.915 457.123 668.627 461.457 660.001C467.389 648.193 484.191 645.744 496 646.015C499.988 646.106 504.042 647.379 508 646.463C514.36 644.99 518.885 639.16 514.346 633.286C505.005 621.197 495.298 627.304 483 629.985C479.332 630.785 471.7 633.431 468.603 630.393C466.161 627.996 466.765 622.77 468.179 620.015C471.484 613.576 480.018 610.977 484.938 605.91C488.873 601.856 488.948 596.058 482.957 593.747C475.696 590.947 471.034 600.754 466.961 604.999C457.432 614.929 439.825 619.197 430 607C417.975 610.537 407.484 618.112 395 621C399.921 631.553 412.858 638.863 421 647C408.194 639.841 395.891 634.833 389 621C402.927 617.085 417.805 613.018 430 604.895C438.347 599.335 444.935 590.062 450.71 582C460.576 568.225 473.411 552.281 476 535C483.602 538.198 490.191 543.484 498 546.536C507.528 550.26 518.066 551.248 528 553.36C541.053 556.136 554.673 559.911 568 561C563.453 563.427 559.032 562.854 554 563.075C545.607 563.444 537.388 563.338 529 564C538.024 569.512 552.673 569.014 563 571C577.908 573.867 592.961 574.739 608 576.17C621.82 577.485 635.08 579 649 579C658.925 579 671.616 581.025 680.985 577.121C689.616 573.524 694.273 561.039 699.973 554.143C707.788 544.689 721.304 540 733 540C725.514 548.428 713.62 554.984 704 560.796C698.924 563.863 693.343 566.333 689.529 571.04C681.271 581.233 682.918 592.972 684.575 605C687.377 625.343 691.18 646.163 707.015 660.83C713.443 666.784 720.51 671.705 728 676.2C732.802 679.082 738.94 681.799 742.566 686.184C751.097 696.502 731.63 720.071 751.004 725.424C755.568 726.685 761.79 724.329 762.188 718.996C762.881 709.699 754.185 704.447 760.638 695.015C761.561 693.667 762.759 692.435 764.043 691.43C775.773 682.242 789.777 693.448 801 697C807.862 688.487 813.17 693.526 821.985 691.643C824.96 691.007 827.682 688.218 827.454 685.015C827.157 680.848 822.465 679.14 819 678.468C809.79 676.682 800.102 678.079 791 675.225C782.112 672.438 781.541 667.127 789 661.789C791.168 660.238 793.539 659.031 796 658.019C799.677 656.506 803.059 656.035 807 656C802.002 635.222 778.84 652.758 765 648C767.814 642.051 774.996 635.636 775.613 629.004C775.936 625.533 772.263 619.623 768.145 621.252C764.868 622.549 762.892 627.303 760.96 630C757.909 634.257 754.138 637.822 750 641C750.621 634.589 747.969 629.762 745.41 624C739.856 611.498 732.648 598.655 723 589C745.775 583.387 764.427 570.836 785 560C775.217 568.343 763.649 577.489 752 583L752 585C768.724 597.023 785.496 608.521 803 619.424C810.901 624.345 819.105 631.165 828 634L825 630C827.235 631.085 829.547 632.76 832.002 633.27C838.944 634.714 846.125 628.743 852 626C849.861 619.069 842.726 620.103 837 617.79C828.031 614.167 818.34 608.256 811 602C818.639 601.672 832.701 601.115 838.535 595.686C841.116 593.285 845.949 587.046 842.392 583.643C839.545 580.919 832.385 583.525 829 584.08C820.583 585.461 808.005 586.959 800 583.347C796.034 581.558 791.748 577.578 791.402 573C791.108 569.118 793.117 566.569 791 563C796.022 560.672 799.815 556.518 804.286 553.286C808.238 550.429 812.771 548.269 817 545.85C821.069 543.522 825.469 541.65 827 537C821.969 538.178 818.067 539.412 813 540L813 536C808.058 537.893 804.999 537.821 800 536L800 540C797.803 540.623 795.296 542.434 792.976 542.268C788.002 541.911 782.905 532.175 779 529C783.489 522.682 771.786 519.059 774.102 513.236C775.639 509.371 779.897 514.028 781.94 514.329C783.514 514.561 784.903 512.881 786 512C786.078 518.516 787.594 518.326 793 520C794.15 517.981 795.015 517.277 797 516L799 523L804 521C805.797 527.576 810.44 530.422 817 531L817 536C819.626 535.161 820.161 534.627 821 532C838.701 539.866 859.008 541.008 878 539.17C902.454 536.803 925.863 531.822 948 520.753C963.478 513.014 978.178 503.497 980.166 485C980.524 481.671 981.357 478.344 980.605 475C977.835 462.691 961.7 462.017 955 453C951.759 453.204 949.132 452.843 946 452C950.298 445.856 946.148 435.166 946 428C949.068 431.141 951.646 434.295 954 438C956.803 431.113 950.751 424.964 945.996 420.714C940.559 415.855 935.571 409.681 928 408.329C918.847 406.695 898.357 410.785 898.438 422.998C898.454 425.525 899.904 427.816 901 430z" />
  <path style="fill:#48494d; stroke:none;"
    d="M902 421C907.201 419.333 912.606 415.822 918.004 415.193C922.137 414.711 925.964 416.508 930 417C923.628 408.962 906.769 412.313 902 421M789 432C797.244 435.452 811.302 429.412 819 426C815.619 424.681 812.469 425.816 809 426.576C802.12 428.082 795.7 429.816 789 432M828 431C830.623 432.128 833.225 432.935 836 433.625C837.651 434.035 839.312 434.469 841 434.699C844.505 435.177 852.334 433.628 848.353 428.418C843.334 421.852 831.137 424.492 828 431M908 455C908.895 459.824 909.289 464.323 907.387 469C902.664 480.613 883.731 492.344 871 488.347C866.124 486.816 863.23 482.576 859.911 479C855.615 474.371 848.318 468.185 849.512 461C850.522 454.926 856.873 448.871 860.356 444C864.681 437.954 867.858 433.416 874 429C868.769 426.867 864.068 430.011 860 433.265C852.679 439.12 841.017 448.667 840.398 459C839.653 471.427 855.435 483.434 865 488.687C878.831 496.282 896.482 486.824 906.815 476.7C911.959 471.659 915.303 459.602 908 455M888 429C893.542 436.898 901.123 443.702 906 452C906.907 448.691 905.218 446.028 903.777 443C900.353 435.804 896.503 429.923 888 429M810.938 432.757C806.955 432.339 799.347 434.25 796.742 437.419C794.112 440.619 794.329 447.084 799.109 447.848C804.133 448.651 809.454 446.103 812.272 441.957C814.169 439.167 815.871 433.274 810.938 432.757M540 440C542.464 443.468 545.657 447.351 550 448.467C556.639 450.173 561.88 442.549 563 437C555.153 435.132 546.818 435.443 540 440M765 443C766.124 446.083 766.399 453.19 769.434 454.867C774.151 457.475 783.888 449.497 784.577 444.996C785.111 441.506 782.801 437.361 778.957 437.757C776.948 437.964 774.874 438.98 773 439.684C770.295 440.701 767.671 441.904 765 443M504 438.465C500.271 439.113 495.1 440.298 492.604 443.394C488.367 448.65 494.084 452.256 499 451.556C502.806 451.013 506.936 449.864 509.486 446.786C514.107 441.21 510.086 437.408 504 438.465M581.044 438.692C570.943 441.581 580.527 453.033 587.985 451.254C592.044 450.285 595.676 445.259 592.393 441.513C590.057 438.849 584.344 437.748 581.044 438.692M907 438C911.409 444.074 917.675 446.401 925 447C919.677 443.634 912.891 440.23 907 438M868 480L864 474C870.347 477.618 877.419 480.934 885 479.787C892.224 478.695 905.23 469.867 900.972 461.09C897.636 454.212 886.062 449.259 879 448C883.485 452.05 889.146 453.172 892 459C885.941 460.025 882.068 460.705 876 459C876.955 457.233 877.566 456.393 879 455L879 451C877.043 452.389 875.73 454.311 874 456L876 449C873.867 450.155 873.218 450.882 872 453C872.855 449.442 874.425 448.564 878 448C876.879 444.345 874.555 440.418 869.996 442.202C867.625 443.13 865.771 445.262 864.001 447.005C859.837 451.103 850.765 458.464 851.387 465C852.083 472.307 861.787 478.02 868 480M524.999 442.654C519.912 444.1 505.006 455.283 514.318 460.933C517.783 463.035 526.313 460.039 529.956 458.942C538.865 456.26 534.068 440.075 524.999 442.654M828.318 443.029C825.829 444.672 825.449 448.811 828.318 450.257C830.818 451.517 834.661 450.915 836.833 449.258C843.055 444.513 832.451 440.299 828.318 443.029M454 449C456.23 449.945 458.67 449.821 460.911 450.741C463.58 451.836 465.276 454.464 468.039 455.361C473.085 457 479.889 454.081 481.427 448.989C482.012 447.053 481.957 444.996 482 443C472.747 443.808 463.156 447.111 454 449M607.005 443.743C594.96 448.368 604.609 464.019 614.956 460.092C625.86 455.953 617.948 439.541 607.005 443.743M750 446C752.86 451.432 758.917 451.548 760 445C756.578 445.028 753.363 445.375 750 446M743 446C739.072 446.931 736.307 449.012 733 451.276C729.696 453.539 725.216 454.921 722.318 457.648C718.864 460.898 719.771 468.713 725.055 469.577C728.232 470.097 731.474 467.926 734 466.3C742.148 461.056 744.65 455.327 743 446M931 448C934.942 450.408 939.438 450.905 944 451C940.141 448.673 935.456 448.192 931 448M451.667 450.333C451.222 450.778 452.278 450.722 452.333 450.667C452.778 450.222 451.722 450.278 451.667 450.333M670 460C667.85 455.226 657.15 445.572 651.662 451.589C647.478 456.176 659.361 459.233 662 459.674C664.633 460.115 667.341 459.998 670 460M707.999 450.48C704.307 451.034 698.027 452.443 696.288 456.214C693.764 461.686 701.663 465.36 705.985 464.566C713.529 463.18 719.373 448.774 707.999 450.48M563.001 451.533C549.653 454.469 555.716 470.279 568 467.602C581.146 464.737 574.89 448.918 563.001 451.533M398 484C401.537 481.61 406.703 481.458 409.682 478.566C413.695 474.671 409.508 461.095 419.69 466.38C421.169 467.147 422.54 468.187 424 469C424.674 466.703 424.965 466.226 427 465C426.389 466.727 425.272 468.885 425.813 470.776C427.35 476.142 435.937 473.122 438.566 470.501C441.129 467.946 440.97 464.349 441 461C443.35 464.517 445.471 468.147 443 472C444.297 473.92 444.791 474.316 447 475C449.148 470.699 454.671 469.181 454.922 463.999C455.144 459.416 451.127 452.182 445.91 452.393C436.141 452.789 425.311 459.311 416 462.088C411.954 463.295 404.717 463.896 401.603 466.857C398.502 469.807 399.345 479.69 398 484M916 454C916.002 456.464 915.375 460.327 917.028 462.396C921.011 467.382 927.865 460.925 929 457L916 454M803.607 457.028C801.323 458.873 802.437 462.829 803.858 464.852C806.266 468.278 813.116 469.407 816.258 466.258C823.492 459.004 809.157 452.544 803.607 457.028M945.941 457.616C935.603 457.996 933.613 471.664 944.956 470.667C951.069 470.129 952.426 457.377 945.941 457.616M787.995 458.617C783.475 458.793 778.236 462.42 777.362 467.001C776.525 471.387 780.17 477.456 785.015 477.237C794.66 476.8 798.962 458.188 787.995 458.617M752.109 463.032C745.638 466.575 746.549 482.181 755.995 477.539C759.731 475.703 762.947 471.487 762.392 467.105C761.837 462.719 755.567 461.138 752.109 463.032M828.228 462.782C824.155 464.466 824.479 470.775 826.742 473.772C829.099 476.891 833.487 477.482 836.981 476.106C847.904 471.803 837.133 459.099 828.228 462.782M485.001 465.653C473.431 469.277 477.179 485.041 488.996 481.346C499.723 477.993 496.657 462.002 485.001 465.653M589.043 467.742C584.522 469.573 581.046 476.497 585.319 480.297C588.811 483.403 594.893 483.519 598.995 481.772C603.668 479.782 607.405 473.877 602.682 469.703C599.468 466.863 592.958 466.157 589.043 467.742M385.981 468.668C380.759 469.599 378.21 473.598 373.91 475.992C371.935 477.092 369.252 477.065 367.608 478.742C363.855 482.567 369.027 486.966 373.001 486.613C377.799 486.186 387.255 482.482 390.254 478.61C393.107 474.925 391.485 467.687 385.981 468.668M469 470C466.694 469.452 464.393 468.865 461.998 469.243C460.145 469.536 458.51 470.302 457.019 471.434C454.606 473.266 452.425 475.842 452.333 478.999C452.105 486.842 460.512 490.144 465.347 483.891C466.469 482.44 467.171 480.765 467.62 479C468.359 476.1 468.625 472.966 469 470M541 472.482C535.444 473.385 528.797 477.071 527.474 483C525.403 492.278 535.777 495.889 543 494.787C547.398 494.116 552.772 491.397 554.393 486.985C557.465 478.619 548.842 471.208 541 472.482M649 472C649.87 477.47 657.572 482.091 662.338 477.157C664.814 474.595 661.087 472.718 658.981 472.228C657.712 471.934 656.298 472.022 655.005 472.004L649 472M973 472C973.015 477.56 973.072 481.712 978 485C977.996 479.545 978.333 474.799 973 472M769.518 475.046C760.117 480.577 767.094 495.429 776.891 489.971C785.392 485.236 776.794 470.765 769.518 475.046M954 491C955.725 490.486 957.39 490.079 958.877 488.99C960.299 487.948 961.238 486.671 961.681 484.957C964.978 472.217 943.697 472.756 950.243 484.995C951.356 487.077 952.7 489.034 954 491M814 492C812.521 492.986 812.797 493 811 493C812.533 497.966 816.14 498.856 821 499C820.265 494.765 818.052 494.224 814 494C817.251 493.036 821.925 493.513 824.258 490.682C829.532 484.282 821.89 476.399 815.005 477.272C806.735 478.319 805.898 490.248 814 492M919 481C919.536 482.126 919.967 483.608 921 484.441C927.374 489.582 932.933 478.173 923.044 479.399C921.541 479.585 920.332 480.36 919 481M731.999 482.602C727.991 483.408 722.976 486.901 721.851 491.004C720.373 496.393 726.408 499.738 730.999 498.562C738.953 496.524 742.894 480.41 731.999 482.602M796.094 483.743C786.691 487.609 792.635 502.305 801.956 497.782C810.349 493.709 805.114 480.035 796.094 483.743M346 484C342.885 484.46 339.977 485.305 337 486.345C333.943 487.413 329.672 488.615 327.694 491.39C325.786 494.066 326.969 500.109 330.279 501.303C332.739 502.191 335.802 500.677 338 499.687C345.587 496.268 347.919 492.065 346 484M625 484C625.023 485.937 624.846 488.11 625.603 489.946C629.734 499.962 645.4 489.104 635.941 485.573C635.025 485.231 633.959 485.188 632.999 485.079C630.302 484.775 627.674 484.497 625 484M755.054 486.592C748.882 488.273 751.052 499.33 756.896 497.654C762.508 496.045 762.446 484.578 755.054 486.592M438 488C433.157 489.164 419.684 496.882 426.604 503.357C430.469 506.974 437.866 501.91 439.218 497.985C440.323 494.774 438.717 491.14 438 488M855 499C853.917 496.677 852.781 494.89 850.941 493.039C848.337 490.419 845.01 487.585 841.094 489.053C837.432 490.426 834.174 496.183 838.319 498.972C840.613 500.517 844.381 500.074 847 499.961C849.689 499.844 852.335 499.337 855 499M911.056 488.747C904.636 491.353 909.19 497.801 914.852 495.257C920.323 492.799 916.147 486.68 911.056 488.747M977 490C967.051 505.861 951.562 509.157 934 511.286C925.949 512.261 918.085 514.061 910 514.83C896.111 516.152 881.931 515.956 868 516.911C853.964 517.872 831.681 514.84 824 530C829.314 531.265 834.874 531.576 839.985 529.316C843.887 527.59 846.568 524.427 851.004 524.058C864.378 522.946 877.59 520.009 891 519.089C906.507 518.027 921.6 516.99 937 514.59C940.634 514.024 944.436 514.302 948 513.39C958.054 510.818 977.023 502.389 977 490M318 494C314.06 495.135 310.489 496.901 307 499.066C304.254 500.769 301.514 502.611 299.019 504.669C294.197 508.648 292.881 516.682 301.015 517.728C307.599 518.576 316.691 511.934 318.976 505.996C320.463 502.132 318.987 497.815 318 494M389.209 495.306C382.797 497.562 382.522 513.383 390.946 510.694C397.887 508.478 396.847 492.62 389.209 495.306M470 513C462.162 515.506 454.507 517.872 447 521.309C438.823 525.052 431.193 529.68 422 528C418.387 532.747 414.173 536.928 411 542C404.687 536.117 403.943 532.068 402 524L400 524C395.792 536.432 402.675 550.831 417 551C413.222 543.762 419.591 539.909 425 535.301C429.871 531.152 435.288 528.898 441 526.22C449.991 522.005 459.993 516.874 470 516C471.95 512.522 475.649 510.641 477.427 506.985C478.176 505.444 478.619 503.716 478.64 502C478.8 489.353 462.37 495.251 465.65 505.961C466.468 508.634 468.347 510.808 470 513M692 494.747C688.763 495.927 684.818 499.36 684.466 502.996C683.982 508.006 689.912 510.548 693.995 509.091C702.498 506.058 702.143 491.047 692 494.747M363.039 495.762C357.04 497.975 358.17 507.169 364.942 505.149C370.662 503.443 369.786 493.273 363.039 495.762M398 515C402.34 510.762 406.353 512.981 412 513C412 508.617 412.356 504.039 410.16 500.059C407.283 494.845 402.36 497.462 400.218 502.005C398.586 505.463 398.457 511.162 398 515M453.21 496.917C446.429 499.107 447.931 512.206 455.867 508.787C461.634 506.302 460.717 494.492 453.21 496.917M928 504C929.408 504.404 930.552 504.881 932.044 504.812C942.596 504.326 936.123 493.271 929.742 500.184C928.729 501.281 928.471 502.649 928 504M574.228 499.742C570.175 501.635 570.268 508.494 572.179 511.891C574.66 516.301 582.519 518.016 586.891 515.678C591.584 513.17 592.221 506.025 588.682 502.279C585.543 498.956 578.397 497.795 574.228 499.742M508.015 502.654C497.072 506.118 503.921 522.194 513.956 518.254C523.468 514.519 518.104 499.459 508.015 502.654M887 502C888.769 502.779 890.036 502.912 892 503C890.231 502.221 888.964 502.088 887 502M745 515C747.195 514.974 749.777 515.211 751.723 513.972C753.731 512.694 756.263 506.636 752.018 506.636C749.646 506.636 747.883 509.264 746.702 510.975C745.815 512.259 745.491 513.546 745 515M884 506C887.425 508.051 891.112 507.908 895 508.424C905.974 509.883 916.984 508 928 508C923.031 505.915 916.35 507 911 507C901.965 507 893.055 506 884 506M617.04 507.963C605.245 511.746 611.321 531.59 622.999 527.876C626.55 526.747 630.497 524.132 630.547 519.996C630.615 514.389 622.975 506.06 617.04 507.963M345.019 509.747C336.867 512.874 342.807 522.035 349.98 519.254C357.702 516.26 351.611 507.219 345.019 509.747M715.003 510.762C705.973 513.88 706.164 531.113 716.995 527.242C720.733 525.906 723.651 522.017 723.481 518C723.293 513.532 719.801 509.104 715.003 510.762M778 527C776.336 522.064 772.735 518.377 770 514C771.618 512.686 771.693 512.123 772 510C762.031 512.82 773.695 523.708 778 527M822 514C823.506 514.683 824.315 514.826 826 515C824.494 514.317 823.685 514.174 822 514M471.667 515.333C471.222 515.778 472.278 515.722 472.333 515.667C472.778 515.222 471.722 515.278 471.667 515.333M266.667 516.333C266.222 516.778 267.278 516.722 267.333 516.667C267.778 516.222 266.722 516.278 266.667 516.333M400 516L401 522L403 522C402.779 518.993 402.545 517.635 400 516M805 516C805.684 518.209 806.08 518.703 808 520L809 519L808 516L805 516M477 517C479.162 524.014 481.022 536.396 488 540C485.512 532.025 487.75 518.226 477 517M309 536C320.149 535.489 324.97 528.617 325 518C315.166 520.337 307.689 525.328 309 536M370.147 521.043C363.828 524.577 369.66 534.535 375.891 531.716C383.252 528.386 376.603 517.433 370.147 521.043M558.228 520.742C554.873 522.309 554.112 527.643 556.028 530.606C558.104 533.817 565.277 535.662 568.772 534.218C572.881 532.521 572.781 525.4 570.258 522.434C567.786 519.528 561.534 519.198 558.228 520.742M252 536C258.754 534.955 262.18 529.186 264 523C256.626 521.796 252.984 529.698 252 536M389 530C387.521 529.014 387.797 529 386 529C380.462 534.58 375.054 534.201 368 532C362.744 536.369 354.588 538.235 348 539.765C343.99 540.696 339.503 540.454 337 544C351.034 544 367.231 546.237 381 543.486C383.888 542.909 392.026 542.891 393.731 540.397C395.865 537.276 393.57 523.094 389 530M541.109 527.836C531.877 530.951 540.07 545.918 548.941 542.396C557.701 538.918 548.748 525.258 541.109 527.836M775 528C775.936 529.949 776.392 530.55 778 532C777.064 530.052 776.608 529.45 775 528M878 530C881.853 531.617 886.007 530.951 890 530C886.276 528.546 881.973 529.918 878 530M508.09 531.006C500.245 533.252 501.222 546.2 510.941 543.678C517.755 541.91 514.363 529.21 508.09 531.006M282.044 532.032C273.175 536.593 278.277 549.42 287.852 544.486C294.534 541.043 289.726 528.082 282.044 532.032M460.044 531.746C453.597 534.283 453.896 546.088 461.985 543.238C469.533 540.58 469.359 528.081 460.044 531.746M660.999 534.711C650.028 537.214 651.737 551.367 662.985 548.551C671.184 546.498 669.516 532.769 660.999 534.711M440.001 535.668C430.706 538.314 430.796 552.646 441.999 549.427C451.158 546.797 450.01 532.819 440.001 535.668M252 558C261.633 557.213 265.518 554.279 268 545C264.364 545.156 256.556 544.823 253.988 547.742C251.802 550.228 252.064 554.916 252 558M752 546L752 548C753.952 548.511 754.457 548.733 756 550C756.688 546.955 754.758 546.451 752 546M802 546L802 549L804 549L804 546L802 546M245 547C242.151 547.456 238.645 546.814 236.015 548.066C232 549.979 226.71 559.284 231.603 562.958C236.254 566.448 243.04 560.105 244.347 555.996C245.256 553.138 244.998 549.958 245 547M574.603 548.082C572.132 549.872 574.918 553.713 577.397 551.918C579.868 550.128 577.082 546.287 574.603 548.082z" />

  <path style="fill:#48494d; stroke:none;"
    d="M392.214 591.851C385.18 594.112 387.072 608.065 395.895 605.562C404.088 603.238 399.876 589.388 392.214 591.851M716 602C716.764 598.487 716.438 595.538 716 592C708.723 593.188 708.994 600.539 716 602M686 596C686.351 604.18 689.221 609.682 692.382 617C699.021 632.372 706.885 651.029 721 661C719.035 656.78 715.706 653.692 712.899 650C708.153 643.757 703.837 636.979 700.259 630C696.8 623.253 693.769 616.113 691.153 609C689.568 604.693 688.662 599.731 686 596z" />
  <path style="fill:#b7b9bb; stroke:none;"
    d="M838 600C839.506 600.683 840.315 600.826 842 601C840.494 600.317 839.685 600.174 838 600z" />
  <path style="fill:#48494d; stroke:none;"
    d="M730 607C726.848 613.047 727.545 620.042 736 618C734.94 613.538 733.514 610.021 730 607M713.015 608.782C702.944 612.277 707.477 627.496 717.985 624.131C729.372 620.485 723.63 605.098 713.015 608.782z" />
  <path style="fill:#48494d; stroke:none;"
    d="M596 616C599.645 619.28 604.491 620.416 609 622.204C615.084 624.616 621.138 627.338 627 630.248C646.555 639.956 664.168 651.555 678.826 668C686.179 676.249 698.638 693.774 687 703C686.929 699.661 686.731 696.889 685 694C683.996 697.366 684.355 701.821 682.142 704.697C675.283 713.609 659.879 701.118 654 696.848C633.35 681.85 620.27 658.107 596 648C602.032 655.41 611.133 660.314 618 667.015C631.882 680.561 643.622 696.198 661 705.688C670.578 710.917 685.863 715.156 693.272 703.985C701.211 692.016 689.074 676.031 681.739 667C670.942 653.704 659.321 645.148 645 636.293C637.746 631.808 630.056 625.958 621.996 623.094C618.432 621.828 614.613 621.888 611 620.78C605.937 619.228 601.258 616.894 596 616M797 624C798.869 627.143 807.478 631.459 805 635C851.507 665.774 910.895 677.635 966 678.985C977.129 679.258 988.918 679.889 1000 678.83C1008.03 678.063 1015.91 676.067 1024 676L1024 629C1013.88 630.742 1004.02 634.822 993.911 636.745C968.645 641.551 941.75 644.088 916 642.961C902.583 642.373 888.199 642.069 875.015 639.37C866.578 637.644 858.592 636.023 850 634.792C847.737 634.467 845.35 633.256 843.039 633.527C837.642 634.159 836.516 642.526 830.985 642.391C827.485 642.306 823.757 638.527 821 636.67C813.816 631.829 805.925 624.593 797 624z" />
  <path style="fill:#48494d; stroke:none;"
    d="M739 627C737.126 630.344 736.198 633.168 736 637C742.923 636.77 743.454 632.856 741 627L739 627z" />


  <path style="fill:#b7b9bb; stroke:none;"
    d="M260 687C259.292 695.977 258.827 704.128 261.156 713C272.611 756.632 320.926 776.164 362 778.911C369.559 779.416 377.374 778 385 778C380.502 776.113 374.834 777.054 370 776.996C362.867 776.911 354.95 775.963 348 774.32C341.8 772.855 338.421 766.797 332 767C327.791 756.059 319.204 747.714 316 736C314.385 740.148 316.411 744.17 318.258 748C321.875 755.495 326.448 762.088 331 769C320.984 765.327 313.37 756.37 306 749C299.367 742.367 291.378 735.523 287.131 726.985C283.919 720.526 282.763 713.191 280.333 706.424C279.016 702.76 278.525 699.941 275 698C271.019 711.468 275.753 730.78 283.789 742C287.957 747.821 293.655 752.33 299 757C281.821 747.436 267.394 731.486 262.514 712C260.527 704.066 263.071 694.319 260 687z" />


  <path style="fill:#b7b9bb; stroke:none;"
    d="M478 719C490.435 745.132 526.716 763.66 555 763.996C566.423 764.132 579.696 762.888 587 753C579.698 755.764 574.082 760.021 566 760.829C541.203 763.311 516.995 752.442 498 737.334C490.907 731.693 485.407 724.218 478 719M302.333 742.667C302.278 742.722 302.222 743.778 302.667 743.333C302.722 743.278 302.778 742.222 302.333 742.667M200 803.693C182.944 808.183 182.615 838.853 203 833.387C210.901 831.268 215.852 824.103 214.811 816C213.951 809.301 207.424 801.738 200 803.693z" />

  <path style="fill:#b7b9bb; stroke:none;"
    d="M198 816L198 819C198.696 817.446 198.696 817.554 198 816M747 821.61C737.286 824.11 730.141 832.834 731.106 843C731.99 852.315 743.568 861.805 753 859.207C761.232 856.939 769.178 847.821 768.866 839C768.5 828.671 757.154 818.996 747 821.61z" />


  <path style="fill:#b7b9bb; stroke:none;"
    d="M604 834C606.995 843.398 614.712 852.358 620.801 860C635.099 877.946 651.065 893.315 670 906.341C719.812 940.609 781.149 961.37 842 961.996C864.044 962.223 886.41 958.068 908 954C904.451 952.552 900.75 953.672 897 954C889.372 954.668 881.654 955.798 874 955.985C849.675 956.581 824.964 954.898 801 950.576C745.736 940.608 688.786 918.94 646 881.711C635.431 872.515 625.17 861.961 616.45 851C612.117 845.553 608.979 838.824 604 834M742 839L743 847L746 843C744.74 841.049 743.981 840.16 742 839M739 840C739.684 841.58 739.805 841.777 741 843C740.316 841.42 740.195 841.223 739 840M84 858C85.313 865.276 90.2919 871.929 94.3333 878C96.5871 881.386 98.4919 884.872 102 887C99.943 880.502 95.5329 874.881 92.1497 869C89.887 865.067 87.8701 860.484 84 858M269.059 894.029C261.534 898.096 267.13 911.725 274.826 907.663C284.373 902.624 278.562 888.891 269.059 894.029z" />

  <path style="fill:#b7b9bb; stroke:none;"
    d="M159 912C167.286 922.026 182.121 929.554 193 936.656C230.855 961.367 278.303 981 324 981C338.428 981 352.243 979.279 366 974.644C372.056 972.604 379.07 969.957 382 964C370.677 967.262 360.916 973.629 349 975.562C302.805 983.056 258.747 968.773 218 947.742C205.322 941.198 192.873 933.567 181 925.667C174.061 921.049 166.971 914.544 159 912M26 947C24.0374 946.977 21.8823 947.136 20.0154 946.397C15.4628 944.594 15.0972 937.503 20.9599 938.747C23.2568 939.234 24.6204 941.327 26 943C30.0531 941.37 31.5245 935.44 25.9414 934.411C23.9769 934.049 21.757 934.736 20 935.573C18.1872 936.436 16.5277 937.648 15.1481 939.108C6.17333 948.604 22.4911 959.096 26 947M54 976C55.5955 978.336 57.5628 979.543 60 981C58.6467 977.763 57.4826 976.588 54 976M50 980C47.9891 989.81 59.7986 992.69 61 982C55.7222 984.002 53.975 984.181 50 980M0 981C0.0925818 991.229 7.26197 996.812 15 1002.62C30.741 1014.45 50.1783 1024 70 1024C66.3687 1021.14 61.3403 1020.68 57 1019.14C50.1629 1016.71 43.4122 1013.6 37 1010.22C22.3327 1002.48 12.2965 991.637 0 981z" />
  <path style="fill:#48494d; stroke:none;" d="M0 988L0 1024L56 1024L56 1022C33.8862 1018.69 15.6562 1002.47 0 988z" />
</svg>